<svg xmlns="http://www.w3.org/2000/svg" viewBox="0 0 147.56 175.87"><defs><style>.cls-1{fill:#019dd6;}</style></defs><title>Asset 3</title><g id="Layer_2" data-name="Layer 2"><g id="Layer_1-2" data-name="Layer 1"><path class="cls-1" d="M124,0H23.54A23.54,23.54,0,0,0,0,23.54V124a23.55,23.55,0,0,0,17.12,22.65,69.58,69.58,0,0,1,16.73,7.9L58.1,171a27.9,27.9,0,0,0,31.36,0l24.25-16.48a69.58,69.58,0,0,1,16.73-7.9A23.55,23.55,0,0,0,147.56,124V23.54A23.54,23.54,0,0,0,124,0ZM54.08,111.33a10.43,10.43,0,0,1-10.43,10.43H33.21a10.43,10.43,0,0,1-10.43-10.43h0A10.43,10.43,0,0,1,33.21,100.9H43.65a10.43,10.43,0,0,1,10.43,10.43Zm47-25.55H33.21a10.43,10.43,0,1,1,0-20.87H101a10.43,10.43,0,0,1,0,20.87Zm0-36H33.21a10.43,10.43,0,1,1,0-20.87H101a10.43,10.43,0,0,1,0,20.87Z"/></g></g></svg>